<?xml version="1.0" encoding="UTF-8" standalone="no"?>
<!DOCTYPE svg PUBLIC "-//W3C//DTD SVG 1.1//EN"
 "http://www.w3.org/Graphics/SVG/1.1/DTD/svg11.dtd">
<!-- Generated by graphviz version 2.43.0 (0)
 -->
<!-- Title: reality_check_architecture Pages: 1 -->
<svg width="714pt" height="590pt"
 viewBox="0.00 0.00 714.00 590.00" xmlns="http://www.w3.org/2000/svg" xmlns:xlink="http://www.w3.org/1999/xlink">
<g id="graph0" class="graph" transform="scale(1 1) rotate(0) translate(4 586)">
<title>reality_check_architecture</title>
<polygon fill="white" stroke="transparent" points="-4,4 -4,-586 710,-586 710,4 -4,4"/>
<text text-anchor="middle" x="353" y="-566.8" font-family="Helvetica,sans-Serif" font-size="14.00">amplifier&#45;bundle&#45;reality&#45;check</text>
<g id="clust1" class="cluster">
<title>cluster_user_interactions</title>
<path fill="none" stroke="#666666" stroke-dasharray="5,2" d="M20,-477C20,-477 482,-477 482,-477 488,-477 494,-483 494,-489 494,-489 494,-539 494,-539 494,-545 488,-551 482,-551 482,-551 20,-551 20,-551 14,-551 8,-545 8,-539 8,-539 8,-489 8,-489 8,-483 14,-477 20,-477"/>
<text text-anchor="middle" x="251" y="-538.2" font-family="Helvetica,sans-Serif" font-size="11.00">User Interactions</text>
</g>
<g id="clust2" class="cluster">
<title>cluster_reality_check</title>
<path fill="#f0f8f0" stroke="#2d7d46" d="M201,-92C201,-92 476,-92 476,-92 482,-92 488,-98 488,-104 488,-104 488,-425 488,-425 488,-431 482,-437 476,-437 476,-437 201,-437 201,-437 195,-437 189,-431 189,-425 189,-425 189,-104 189,-104 189,-98 195,-92 201,-92"/>
<text text-anchor="middle" x="338.5" y="-424.2" font-family="Helvetica,sans-Serif" font-size="11.00">amplifier&#45;bundle&#45;reality&#45;check</text>
</g>
<g id="clust3" class="cluster">
<title>cluster_validators</title>
<path fill="none" stroke="#999999" stroke-dasharray="5,2" d="M209,-177C209,-177 468,-177 468,-177 474,-177 480,-183 480,-189 480,-189 480,-237 480,-237 480,-243 474,-249 468,-249 468,-249 209,-249 209,-249 203,-249 197,-243 197,-237 197,-237 197,-189 197,-189 197,-183 203,-177 209,-177"/>
<text text-anchor="middle" x="338.5" y="-237.8" font-family="Helvetica,sans-Serif" font-size="9.00">Validators</text>
</g>
<g id="clust4" class="cluster">
<title>cluster_dtu</title>
<path fill="none" stroke="#1a73e8" stroke-dasharray="5,2" d="M508,-278C508,-278 686,-278 686,-278 692,-278 698,-284 698,-290 698,-290 698,-424 698,-424 698,-430 692,-436 686,-436 686,-436 508,-436 508,-436 502,-436 496,-430 496,-424 496,-424 496,-290 496,-290 496,-284 502,-278 508,-278"/>
<text text-anchor="middle" x="597" y="-424" font-family="Helvetica,sans-Serif" font-size="10.00">amplifier&#45;bundle&#45;digital&#45;twin&#45;universe</text>
</g>
<!-- spec -->
<g id="node1" class="node">
<title>spec</title>
<polygon fill="#fff8e1" stroke="black" points="310,-522 160,-522 160,-486 316,-486 316,-516 310,-522"/>
<polyline fill="none" stroke="black" points="310,-522 310,-516 "/>
<polyline fill="none" stroke="black" points="316,-516 310,-516 "/>
<text text-anchor="middle" x="238" y="-500.3" font-family="Helvetica,sans-Serif" font-size="14.00">Spec / requirements</text>
</g>
<!-- intent -->
<g id="node5" class="node">
<title>intent</title>
<path fill="#c8e6c9" stroke="black" d="M311.5,-409C311.5,-409 212.5,-409 212.5,-409 206.5,-409 200.5,-403 200.5,-397 200.5,-397 200.5,-383 200.5,-383 200.5,-377 206.5,-371 212.5,-371 212.5,-371 311.5,-371 311.5,-371 317.5,-371 323.5,-377 323.5,-383 323.5,-383 323.5,-397 323.5,-397 323.5,-403 317.5,-409 311.5,-409"/>
<text text-anchor="middle" x="262" y="-393.8" font-family="Helvetica,sans-Serif" font-size="14.00">Intent Analyzer</text>
<text text-anchor="middle" x="262" y="-378.8" font-family="Helvetica,sans-Serif" font-size="14.00">agent</text>
</g>
<!-- spec&#45;&gt;intent -->
<g id="edge3" class="edge">
<title>spec&#45;&gt;intent</title>
<path fill="none" stroke="black" d="M241.65,-485.99C243.92,-475.4 246.98,-461.11 250.04,-446.83"/>
<polygon fill="black" stroke="black" points="253.47,-447.51 252.14,-437 246.63,-446.04 253.47,-447.51"/>
</g>
<!-- conversation -->
<g id="node2" class="node">
<title>conversation</title>
<polygon fill="#fff8e1" stroke="black" points="480,-523 334,-523 334,-485 486,-485 486,-517 480,-523"/>
<polyline fill="none" stroke="black" points="480,-523 480,-517 "/>
<polyline fill="none" stroke="black" points="486,-517 480,-517 "/>
<text text-anchor="middle" x="410" y="-507.8" font-family="Helvetica,sans-Serif" font-size="14.00">Agent conversation</text>
<text text-anchor="middle" x="410" y="-492.8" font-family="Helvetica,sans-Serif" font-size="14.00">history</text>
</g>
<!-- conversation&#45;&gt;intent -->
<g id="edge4" class="edge">
<title>conversation&#45;&gt;intent</title>
<path fill="none" stroke="black" d="M385.89,-484.76C370.84,-473.36 350.62,-458.07 330.89,-443.14"/>
<polygon fill="black" stroke="black" points="332.87,-440.24 322.78,-437 328.64,-445.82 332.87,-440.24"/>
</g>
<!-- feedback -->
<g id="node3" class="node">
<title>feedback</title>
<polygon fill="#fff8e1" stroke="black" points="136,-523 16,-523 16,-485 142,-485 142,-517 136,-523"/>
<polyline fill="none" stroke="black" points="136,-523 136,-517 "/>
<polyline fill="none" stroke="black" points="142,-517 136,-517 "/>
<text text-anchor="middle" x="79" y="-507.8" font-family="Helvetica,sans-Serif" font-size="14.00">User feedback /</text>
<text text-anchor="middle" x="79" y="-492.8" font-family="Helvetica,sans-Serif" font-size="14.00">clarifications</text>
</g>
<!-- feedback&#45;&gt;intent -->
<g id="edge5" class="edge">
<title>feedback&#45;&gt;intent</title>
<path fill="none" stroke="black" d="M108.81,-484.76C128.34,-472.8 154.89,-456.55 180.4,-440.94"/>
<polygon fill="black" stroke="black" points="182.3,-443.88 189,-435.68 178.65,-437.91 182.3,-443.88"/>
</g>
<!-- software -->
<g id="node4" class="node">
<title>software</title>
<polygon fill="#f5f5f5" stroke="black" points="668,-522 665,-526 644,-526 641,-522 504,-522 504,-486 668,-486 668,-522"/>
<text text-anchor="middle" x="586" y="-507.4" font-family="Helvetica,sans-Serif" font-size="12.00">Software</text>
<text text-anchor="middle" x="586" y="-494.4" font-family="Helvetica,sans-Serif" font-size="12.00">(repo, directory, artifact)</text>
</g>
<!-- profile_builder -->
<g id="node10" class="node">
<title>profile_builder</title>
<path fill="#bbdefb" stroke="black" d="M643.5,-409C643.5,-409 520.5,-409 520.5,-409 514.5,-409 508.5,-403 508.5,-397 508.5,-397 508.5,-383 508.5,-383 508.5,-377 514.5,-371 520.5,-371 520.5,-371 643.5,-371 643.5,-371 649.5,-371 655.5,-377 655.5,-383 655.5,-383 655.5,-397 655.5,-397 655.5,-403 649.5,-409 643.5,-409"/>
<text text-anchor="middle" x="582" y="-393.8" font-family="Helvetica,sans-Serif" font-size="14.00">DTU Profile Builder</text>
<text text-anchor="middle" x="582" y="-378.8" font-family="Helvetica,sans-Serif" font-size="14.00">agent</text>
</g>
<!-- software&#45;&gt;profile_builder -->
<g id="edge6" class="edge">
<title>software&#45;&gt;profile_builder</title>
<path fill="none" stroke="black" d="M585.39,-485.99C584.76,-468.38 583.77,-440.55 583.02,-419.55"/>
<polygon fill="black" stroke="black" points="586.51,-419.16 582.65,-409.29 579.51,-419.41 586.51,-419.16"/>
<text text-anchor="middle" x="616" y="-459" font-family="Helvetica,sans-Serif" font-size="10.00">builds profile</text>
<text text-anchor="middle" x="616" y="-448" font-family="Helvetica,sans-Serif" font-size="10.00">from</text>
</g>
<!-- criteria -->
<g id="node6" class="node">
<title>criteria</title>
<polygon fill="#fff8e1" stroke="black" points="306,-324 218,-324 218,-286 312,-286 312,-318 306,-324"/>
<polyline fill="none" stroke="black" points="306,-324 306,-318 "/>
<polyline fill="none" stroke="black" points="312,-318 306,-318 "/>
<text text-anchor="middle" x="265" y="-308.8" font-family="Helvetica,sans-Serif" font-size="14.00">Verification</text>
<text text-anchor="middle" x="265" y="-293.8" font-family="Helvetica,sans-Serif" font-size="14.00">Criteria</text>
</g>
<!-- intent&#45;&gt;criteria -->
<g id="edge1" class="edge">
<title>intent&#45;&gt;criteria</title>
<path fill="none" stroke="black" d="M262.65,-370.99C263.04,-360.3 263.54,-346.5 263.97,-334.37"/>
<polygon fill="black" stroke="black" points="267.48,-334.38 264.34,-324.26 260.48,-334.13 267.48,-334.38"/>
<text text-anchor="middle" x="285.5" y="-345" font-family="Helvetica,sans-Serif" font-size="10.00">produces</text>
</g>
<!-- browser_tester -->
<g id="node7" class="node">
<title>browser_tester</title>
<path fill="#c8e6c9" stroke="black" d="M312.5,-223C312.5,-223 217.5,-223 217.5,-223 211.5,-223 205.5,-217 205.5,-211 205.5,-211 205.5,-197 205.5,-197 205.5,-191 211.5,-185 217.5,-185 217.5,-185 312.5,-185 312.5,-185 318.5,-185 324.5,-191 324.5,-197 324.5,-197 324.5,-211 324.5,-211 324.5,-217 318.5,-223 312.5,-223"/>
<text text-anchor="middle" x="265" y="-207.8" font-family="Helvetica,sans-Serif" font-size="14.00">Browser Tester</text>
<text text-anchor="middle" x="265" y="-192.8" font-family="Helvetica,sans-Serif" font-size="14.00">agent</text>
</g>
<!-- criteria&#45;&gt;browser_tester -->
<g id="edge7" class="edge">
<title>criteria&#45;&gt;browser_tester</title>
<path fill="none" stroke="black" d="M265,-285.84C265,-271.19 265,-250.31 265,-233.44"/>
<polygon fill="black" stroke="black" points="268.5,-233.04 265,-223.04 261.5,-233.04 268.5,-233.04"/>
</g>
<!-- other_validators -->
<g id="node8" class="node">
<title>other_validators</title>
<path fill="#c8e6c9" stroke="black" stroke-dasharray="5,2" d="M459.5,-223C459.5,-223 354.5,-223 354.5,-223 348.5,-223 342.5,-217 342.5,-211 342.5,-211 342.5,-197 342.5,-197 342.5,-191 348.5,-185 354.5,-185 354.5,-185 459.5,-185 459.5,-185 465.5,-185 471.5,-191 471.5,-197 471.5,-197 471.5,-211 471.5,-211 471.5,-217 465.5,-223 459.5,-223"/>
<text text-anchor="middle" x="407" y="-207.8" font-family="Helvetica,sans-Serif" font-size="14.00">Other validators</text>
<text text-anchor="middle" x="407" y="-192.8" font-family="Helvetica,sans-Serif" font-size="14.00">(CLI, API, ...)</text>
</g>
<!-- criteria&#45;&gt;other_validators -->
<g id="edge8" class="edge">
<title>criteria&#45;&gt;other_validators</title>
<path fill="none" stroke="black" d="M291.04,-285.84C313.96,-269.86 347.5,-246.48 372.62,-228.97"/>
<polygon fill="black" stroke="black" points="374.92,-231.63 381.12,-223.04 370.92,-225.89 374.92,-231.63"/>
</g>
<!-- reporter -->
<g id="node9" class="node">
<title>reporter</title>
<path fill="#c8e6c9" stroke="black" d="M333,-138C333,-138 295,-138 295,-138 289,-138 283,-132 283,-126 283,-126 283,-112 283,-112 283,-106 289,-100 295,-100 295,-100 333,-100 333,-100 339,-100 345,-106 345,-112 345,-112 345,-126 345,-126 345,-132 339,-138 333,-138"/>
<text text-anchor="middle" x="314" y="-122.8" font-family="Helvetica,sans-Serif" font-size="14.00">Report</text>
<text text-anchor="middle" x="314" y="-107.8" font-family="Helvetica,sans-Serif" font-size="14.00">agent</text>
</g>
<!-- browser_tester&#45;&gt;reporter -->
<g id="edge11" class="edge">
<title>browser_tester&#45;&gt;reporter</title>
<path fill="none" stroke="black" d="M275.63,-184.99C282.2,-173.86 290.75,-159.38 298.11,-146.91"/>
<polygon fill="black" stroke="black" points="301.15,-148.65 303.22,-138.26 295.12,-145.09 301.15,-148.65"/>
<text text-anchor="middle" x="309" y="-159" font-family="Helvetica,sans-Serif" font-size="10.00">results</text>
</g>
<!-- other_validators&#45;&gt;reporter -->
<g id="edge12" class="edge">
<title>other_validators&#45;&gt;reporter</title>
<path fill="none" stroke="black" stroke-dasharray="5,2" d="M386.82,-184.99C373.75,-173.32 356.54,-157.97 342.13,-145.11"/>
<polygon fill="black" stroke="black" points="344.25,-142.31 334.46,-138.26 339.59,-147.53 344.25,-142.31"/>
<text text-anchor="middle" x="383" y="-159" font-family="Helvetica,sans-Serif" font-size="10.00">results</text>
</g>
<!-- report -->
<g id="node12" class="node">
<title>report</title>
<polygon fill="#ffcdd2" stroke="black" points="278,-44.5 192,-44.5 192,-8.5 284,-8.5 284,-38.5 278,-44.5"/>
<polyline fill="none" stroke="black" points="278,-44.5 278,-38.5 "/>
<polyline fill="none" stroke="black" points="284,-38.5 278,-38.5 "/>
<text text-anchor="middle" x="238" y="-29.7" font-family="Helvetica,sans-Serif" font-size="11.00">Reality Check</text>
<text text-anchor="middle" x="238" y="-17.7" font-family="Helvetica,sans-Serif" font-size="11.00">Report</text>
</g>
<!-- reporter&#45;&gt;report -->
<g id="edge13" class="edge">
<title>reporter&#45;&gt;report</title>
<path fill="none" stroke="black" d="M298.62,-99.69C287.2,-86.09 271.5,-67.39 258.94,-52.43"/>
<polygon fill="black" stroke="black" points="261.44,-49.97 252.33,-44.56 256.08,-54.47 261.44,-49.97"/>
<text text-anchor="middle" x="304.5" y="-74" font-family="Helvetica,sans-Serif" font-size="10.00">produces</text>
</g>
<!-- visual -->
<g id="node13" class="node">
<title>visual</title>
<polygon fill="#ffcdd2" stroke="black" stroke-dasharray="5,2" points="469.5,-53 302.5,-53 302.5,0 475.5,0 475.5,-47 469.5,-53"/>
<polyline fill="none" stroke="black" stroke-dasharray="5,2" points="469.5,-53 469.5,-47 "/>
<polyline fill="none" stroke="black" stroke-dasharray="5,2" points="475.5,-47 469.5,-47 "/>
<text text-anchor="middle" x="389" y="-37.8" font-family="Helvetica,sans-Serif" font-size="14.00">User&#45;facing</text>
<text text-anchor="middle" x="389" y="-22.8" font-family="Helvetica,sans-Serif" font-size="14.00">verification artifact</text>
<text text-anchor="middle" x="389" y="-7.8" font-family="Helvetica,sans-Serif" font-size="14.00">(visual, dashboard, ...)</text>
</g>
<!-- reporter&#45;&gt;visual -->
<g id="edge14" class="edge">
<title>reporter&#45;&gt;visual</title>
<path fill="none" stroke="black" stroke-dasharray="5,2" d="M329.18,-99.69C338.32,-88.65 350.25,-74.26 361.05,-61.23"/>
<polygon fill="black" stroke="black" points="363.91,-63.26 367.59,-53.33 358.52,-58.8 363.91,-63.26"/>
<text text-anchor="middle" x="375.5" y="-74" font-family="Helvetica,sans-Serif" font-size="10.00">generates</text>
</g>
<!-- dtu_env -->
<g id="node11" class="node">
<title>dtu_env</title>
<path fill="#bbdefb" stroke="black" d="M597.5,-324C597.5,-324 516.5,-324 516.5,-324 510.5,-324 504.5,-318 504.5,-312 504.5,-312 504.5,-298 504.5,-298 504.5,-292 510.5,-286 516.5,-286 516.5,-286 597.5,-286 597.5,-286 603.5,-286 609.5,-292 609.5,-298 609.5,-298 609.5,-312 609.5,-312 609.5,-318 603.5,-324 597.5,-324"/>
<text text-anchor="middle" x="557" y="-308.8" font-family="Helvetica,sans-Serif" font-size="14.00">Digital Twin</text>
<text text-anchor="middle" x="557" y="-293.8" font-family="Helvetica,sans-Serif" font-size="14.00">Environment</text>
</g>
<!-- profile_builder&#45;&gt;dtu_env -->
<g id="edge2" class="edge">
<title>profile_builder&#45;&gt;dtu_env</title>
<path fill="none" stroke="black" d="M576.58,-370.99C573.32,-360.19 569.11,-346.22 565.43,-334"/>
<polygon fill="black" stroke="black" points="568.74,-332.83 562.5,-324.26 562.03,-334.85 568.74,-332.83"/>
<text text-anchor="middle" x="592" y="-345" font-family="Helvetica,sans-Serif" font-size="10.00">launches</text>
</g>
<!-- dtu_env&#45;&gt;browser_tester -->
<g id="edge9" class="edge">
<title>dtu_env&#45;&gt;browser_tester</title>
<path fill="none" stroke="black" d="M516.25,-285.93C508.33,-282.92 499.99,-280.1 492,-278 459.91,-269.55 450.66,-273.89 418,-268 399.17,-264.6 351.66,-256.37 334,-249 321.38,-243.74 308.49,-236.21 297.32,-228.87"/>
<polygon fill="black" stroke="black" points="299.01,-225.78 288.77,-223.06 295.08,-231.57 299.01,-225.78"/>
<text text-anchor="middle" x="450" y="-260" font-family="Helvetica,sans-Serif" font-size="10.00">tests against</text>
</g>
<!-- dtu_env&#45;&gt;other_validators -->
<g id="edge10" class="edge">
<title>dtu_env&#45;&gt;other_validators</title>
<path fill="none" stroke="black" stroke-dasharray="5,2" d="M529.49,-285.84C505.17,-269.79 469.54,-246.28 442.97,-228.74"/>
<polygon fill="black" stroke="black" points="444.61,-225.63 434.34,-223.04 440.76,-231.47 444.61,-225.63"/>
<text text-anchor="middle" x="531" y="-260" font-family="Helvetica,sans-Serif" font-size="10.00">tests against</text>
</g>
</g>
</svg>
