<?xml version="1.0" encoding="UTF-8" standalone="no"?>
<!DOCTYPE svg PUBLIC "-//W3C//DTD SVG 1.1//EN"
 "http://www.w3.org/Graphics/SVG/1.1/DTD/svg11.dtd">
<!-- Generated by graphviz version 2.43.0 (0)
 -->
<!-- Title: reality_check_architecture Pages: 1 -->
<svg width="719pt" height="605pt"
 viewBox="0.00 0.00 719.00 605.00" xmlns="http://www.w3.org/2000/svg" xmlns:xlink="http://www.w3.org/1999/xlink">
<g id="graph0" class="graph" transform="scale(1 1) rotate(0) translate(4 601)">
<title>reality_check_architecture</title>
<polygon fill="white" stroke="transparent" points="-4,4 -4,-601 715,-601 715,4 -4,4"/>
<text text-anchor="middle" x="355.5" y="-581.8" font-family="Helvetica,sans-Serif" font-size="14.00">amplifier&#45;bundle&#45;reality&#45;check</text>
<g id="clust1" class="cluster">
<title>cluster_user_interactions</title>
<path fill="none" stroke="#666666" stroke-dasharray="5,2" d="M20,-492C20,-492 482,-492 482,-492 488,-492 494,-498 494,-504 494,-504 494,-554 494,-554 494,-560 488,-566 482,-566 482,-566 20,-566 20,-566 14,-566 8,-560 8,-554 8,-554 8,-504 8,-504 8,-498 14,-492 20,-492"/>
<text text-anchor="middle" x="251" y="-553.2" font-family="Helvetica,sans-Serif" font-size="11.00">User Interactions</text>
</g>
<g id="clust2" class="cluster">
<title>cluster_reality_check</title>
<path fill="#f0f8f0" stroke="#2d7d46" d="M79,-92C79,-92 481,-92 481,-92 487,-92 493,-98 493,-104 493,-104 493,-440 493,-440 493,-446 487,-452 481,-452 481,-452 79,-452 79,-452 73,-452 67,-446 67,-440 67,-440 67,-104 67,-104 67,-98 73,-92 79,-92"/>
<text text-anchor="middle" x="280" y="-439.2" font-family="Helvetica,sans-Serif" font-size="11.00">amplifier&#45;bundle&#45;reality&#45;check</text>
</g>
<g id="clust3" class="cluster">
<title>cluster_validators</title>
<path fill="none" stroke="#999999" stroke-dasharray="5,2" d="M87,-177C87,-177 473,-177 473,-177 479,-177 485,-183 485,-189 485,-189 485,-252 485,-252 485,-258 479,-264 473,-264 473,-264 87,-264 87,-264 81,-264 75,-258 75,-252 75,-252 75,-189 75,-189 75,-183 81,-177 87,-177"/>
<text text-anchor="middle" x="280" y="-252.8" font-family="Helvetica,sans-Serif" font-size="9.00">Validators (run sequentially, skip if no matching tests)</text>
</g>
<g id="clust4" class="cluster">
<title>cluster_dtu</title>
<path fill="none" stroke="#1a73e8" stroke-dasharray="5,2" d="M513,-293C513,-293 691,-293 691,-293 697,-293 703,-299 703,-305 703,-305 703,-439 703,-439 703,-445 697,-451 691,-451 691,-451 513,-451 513,-451 507,-451 501,-445 501,-439 501,-439 501,-305 501,-305 501,-299 507,-293 513,-293"/>
<text text-anchor="middle" x="602" y="-439" font-family="Helvetica,sans-Serif" font-size="10.00">amplifier&#45;bundle&#45;digital&#45;twin&#45;universe</text>
</g>
<!-- spec -->
<g id="node1" class="node">
<title>spec</title>
<polygon fill="#fff8e1" stroke="black" points="310,-537 160,-537 160,-501 316,-501 316,-531 310,-537"/>
<polyline fill="none" stroke="black" points="310,-537 310,-531 "/>
<polyline fill="none" stroke="black" points="316,-531 310,-531 "/>
<text text-anchor="middle" x="238" y="-515.3" font-family="Helvetica,sans-Serif" font-size="14.00">Spec / requirements</text>
</g>
<!-- intent -->
<g id="node5" class="node">
<title>intent</title>
<path fill="#c8e6c9" stroke="black" d="M289.5,-424C289.5,-424 190.5,-424 190.5,-424 184.5,-424 178.5,-418 178.5,-412 178.5,-412 178.5,-398 178.5,-398 178.5,-392 184.5,-386 190.5,-386 190.5,-386 289.5,-386 289.5,-386 295.5,-386 301.5,-392 301.5,-398 301.5,-398 301.5,-412 301.5,-412 301.5,-418 295.5,-424 289.5,-424"/>
<text text-anchor="middle" x="240" y="-408.8" font-family="Helvetica,sans-Serif" font-size="14.00">Intent Analyzer</text>
<text text-anchor="middle" x="240" y="-393.8" font-family="Helvetica,sans-Serif" font-size="14.00">agent</text>
</g>
<!-- spec&#45;&gt;intent -->
<g id="edge3" class="edge">
<title>spec&#45;&gt;intent</title>
<path fill="none" stroke="black" d="M238.3,-500.99C238.49,-490.5 238.74,-476.38 239,-462.24"/>
<polygon fill="black" stroke="black" points="242.5,-462.06 239.18,-452 235.5,-461.93 242.5,-462.06"/>
</g>
<!-- conversation -->
<g id="node2" class="node">
<title>conversation</title>
<polygon fill="#fff8e1" stroke="black" points="480,-538 334,-538 334,-500 486,-500 486,-532 480,-538"/>
<polyline fill="none" stroke="black" points="480,-538 480,-532 "/>
<polyline fill="none" stroke="black" points="486,-532 480,-532 "/>
<text text-anchor="middle" x="410" y="-522.8" font-family="Helvetica,sans-Serif" font-size="14.00">Agent conversation</text>
<text text-anchor="middle" x="410" y="-507.8" font-family="Helvetica,sans-Serif" font-size="14.00">history</text>
</g>
<!-- conversation&#45;&gt;intent -->
<g id="edge4" class="edge">
<title>conversation&#45;&gt;intent</title>
<path fill="none" stroke="black" d="M382.31,-499.76C364.78,-488.21 341.17,-472.66 318.23,-457.54"/>
<polygon fill="black" stroke="black" points="320.09,-454.58 309.82,-452 316.24,-460.42 320.09,-454.58"/>
</g>
<!-- feedback -->
<g id="node3" class="node">
<title>feedback</title>
<polygon fill="#fff8e1" stroke="black" points="136,-538 16,-538 16,-500 142,-500 142,-532 136,-538"/>
<polyline fill="none" stroke="black" points="136,-538 136,-532 "/>
<polyline fill="none" stroke="black" points="142,-532 136,-532 "/>
<text text-anchor="middle" x="79" y="-522.8" font-family="Helvetica,sans-Serif" font-size="14.00">User feedback /</text>
<text text-anchor="middle" x="79" y="-507.8" font-family="Helvetica,sans-Serif" font-size="14.00">clarifications</text>
</g>
<!-- feedback&#45;&gt;intent -->
<g id="edge5" class="edge">
<title>feedback&#45;&gt;intent</title>
<path fill="none" stroke="black" d="M105.23,-499.76C121.75,-488.26 143.99,-472.79 165.63,-457.74"/>
<polygon fill="black" stroke="black" points="167.67,-460.58 173.88,-452 163.67,-454.83 167.67,-460.58"/>
</g>
<!-- software -->
<g id="node4" class="node">
<title>software</title>
<polygon fill="#f5f5f5" stroke="black" points="668,-537 665,-541 644,-541 641,-537 504,-537 504,-501 668,-501 668,-537"/>
<text text-anchor="middle" x="586" y="-522.4" font-family="Helvetica,sans-Serif" font-size="12.00">Software</text>
<text text-anchor="middle" x="586" y="-509.4" font-family="Helvetica,sans-Serif" font-size="12.00">(repo, directory, artifact)</text>
</g>
<!-- profile_builder -->
<g id="node11" class="node">
<title>profile_builder</title>
<path fill="#bbdefb" stroke="black" d="M647.5,-424C647.5,-424 524.5,-424 524.5,-424 518.5,-424 512.5,-418 512.5,-412 512.5,-412 512.5,-398 512.5,-398 512.5,-392 518.5,-386 524.5,-386 524.5,-386 647.5,-386 647.5,-386 653.5,-386 659.5,-392 659.5,-398 659.5,-398 659.5,-412 659.5,-412 659.5,-418 653.5,-424 647.5,-424"/>
<text text-anchor="middle" x="586" y="-408.8" font-family="Helvetica,sans-Serif" font-size="14.00">DTU Profile Builder</text>
<text text-anchor="middle" x="586" y="-393.8" font-family="Helvetica,sans-Serif" font-size="14.00">agent</text>
</g>
<!-- software&#45;&gt;profile_builder -->
<g id="edge6" class="edge">
<title>software&#45;&gt;profile_builder</title>
<path fill="none" stroke="black" d="M586,-500.99C586,-483.38 586,-455.55 586,-434.55"/>
<polygon fill="black" stroke="black" points="589.5,-434.29 586,-424.29 582.5,-434.29 589.5,-434.29"/>
<text text-anchor="middle" x="618" y="-474" font-family="Helvetica,sans-Serif" font-size="10.00">builds profile</text>
<text text-anchor="middle" x="618" y="-463" font-family="Helvetica,sans-Serif" font-size="10.00">from</text>
</g>
<!-- criteria -->
<g id="node6" class="node">
<title>criteria</title>
<polygon fill="#fff8e1" stroke="black" points="304,-339 216,-339 216,-301 310,-301 310,-333 304,-339"/>
<polyline fill="none" stroke="black" points="304,-339 304,-333 "/>
<polyline fill="none" stroke="black" points="310,-333 304,-333 "/>
<text text-anchor="middle" x="263" y="-323.8" font-family="Helvetica,sans-Serif" font-size="14.00">Verification</text>
<text text-anchor="middle" x="263" y="-308.8" font-family="Helvetica,sans-Serif" font-size="14.00">Criteria</text>
</g>
<!-- intent&#45;&gt;criteria -->
<g id="edge1" class="edge">
<title>intent&#45;&gt;criteria</title>
<path fill="none" stroke="black" d="M244.99,-385.99C247.98,-375.19 251.85,-361.22 255.24,-349"/>
<polygon fill="black" stroke="black" points="258.64,-349.83 257.94,-339.26 251.9,-347.96 258.64,-349.83"/>
<text text-anchor="middle" x="274.5" y="-360" font-family="Helvetica,sans-Serif" font-size="10.00">produces</text>
</g>
<!-- terminal_tester -->
<g id="node7" class="node">
<title>terminal_tester</title>
<path fill="#c8e6c9" stroke="black" d="M191,-238C191,-238 95,-238 95,-238 89,-238 83,-232 83,-226 83,-226 83,-197 83,-197 83,-191 89,-185 95,-185 95,-185 191,-185 191,-185 197,-185 203,-191 203,-197 203,-197 203,-226 203,-226 203,-232 197,-238 191,-238"/>
<text text-anchor="middle" x="143" y="-222.8" font-family="Helvetica,sans-Serif" font-size="14.00">Terminal Tester</text>
<text text-anchor="middle" x="143" y="-207.8" font-family="Helvetica,sans-Serif" font-size="14.00">agent</text>
<text text-anchor="middle" x="143" y="-192.8" font-family="Helvetica,sans-Serif" font-size="14.00">(type: cli)</text>
</g>
<!-- criteria&#45;&gt;terminal_tester -->
<g id="edge7" class="edge">
<title>criteria&#45;&gt;terminal_tester</title>
<path fill="none" stroke="black" d="M242.64,-300.93C225.45,-285.67 200.39,-263.43 179.71,-245.08"/>
<polygon fill="black" stroke="black" points="181.82,-242.27 172.02,-238.25 177.17,-247.51 181.82,-242.27"/>
</g>
<!-- browser_tester -->
<g id="node8" class="node">
<title>browser_tester</title>
<path fill="#c8e6c9" stroke="black" d="M331,-238C331,-238 233,-238 233,-238 227,-238 221,-232 221,-226 221,-226 221,-197 221,-197 221,-191 227,-185 233,-185 233,-185 331,-185 331,-185 337,-185 343,-191 343,-197 343,-197 343,-226 343,-226 343,-232 337,-238 331,-238"/>
<text text-anchor="middle" x="282" y="-222.8" font-family="Helvetica,sans-Serif" font-size="14.00">Browser Tester</text>
<text text-anchor="middle" x="282" y="-207.8" font-family="Helvetica,sans-Serif" font-size="14.00">agent</text>
<text text-anchor="middle" x="282" y="-192.8" font-family="Helvetica,sans-Serif" font-size="14.00">(type: browser)</text>
</g>
<!-- criteria&#45;&gt;browser_tester -->
<g id="edge8" class="edge">
<title>criteria&#45;&gt;browser_tester</title>
<path fill="none" stroke="black" d="M266.22,-300.93C268.79,-286.55 272.46,-265.96 275.62,-248.27"/>
<polygon fill="black" stroke="black" points="279.09,-248.71 277.41,-238.25 272.2,-247.48 279.09,-248.71"/>
</g>
<!-- generic_tester -->
<g id="node9" class="node">
<title>generic_tester</title>
<path fill="#c8e6c9" stroke="black" d="M465,-238C465,-238 373,-238 373,-238 367,-238 361,-232 361,-226 361,-226 361,-197 361,-197 361,-191 367,-185 373,-185 373,-185 465,-185 465,-185 471,-185 477,-191 477,-197 477,-197 477,-226 477,-226 477,-232 471,-238 465,-238"/>
<text text-anchor="middle" x="419" y="-222.8" font-family="Helvetica,sans-Serif" font-size="14.00">Generic Tester</text>
<text text-anchor="middle" x="419" y="-207.8" font-family="Helvetica,sans-Serif" font-size="14.00">agent</text>
<text text-anchor="middle" x="419" y="-192.8" font-family="Helvetica,sans-Serif" font-size="14.00">(type: other)</text>
</g>
<!-- criteria&#45;&gt;generic_tester -->
<g id="edge9" class="edge">
<title>criteria&#45;&gt;generic_tester</title>
<path fill="none" stroke="black" d="M293.97,-300.92C311.31,-290.53 333.17,-277.01 352,-264 360.87,-257.87 370.18,-251.02 378.93,-244.36"/>
<polygon fill="black" stroke="black" points="381.32,-246.93 387.12,-238.06 377.06,-241.38 381.32,-246.93"/>
</g>
<!-- reporter -->
<g id="node10" class="node">
<title>reporter</title>
<path fill="#c8e6c9" stroke="black" d="M301,-138C301,-138 263,-138 263,-138 257,-138 251,-132 251,-126 251,-126 251,-112 251,-112 251,-106 257,-100 263,-100 263,-100 301,-100 301,-100 307,-100 313,-106 313,-112 313,-112 313,-126 313,-126 313,-132 307,-138 301,-138"/>
<text text-anchor="middle" x="282" y="-122.8" font-family="Helvetica,sans-Serif" font-size="14.00">Report</text>
<text text-anchor="middle" x="282" y="-107.8" font-family="Helvetica,sans-Serif" font-size="14.00">agent</text>
</g>
<!-- terminal_tester&#45;&gt;reporter -->
<g id="edge13" class="edge">
<title>terminal_tester&#45;&gt;reporter</title>
<path fill="none" stroke="black" d="M182.46,-184.81C202.23,-171.94 226.01,-156.45 245.37,-143.85"/>
<polygon fill="black" stroke="black" points="247.45,-146.67 253.92,-138.28 243.63,-140.8 247.45,-146.67"/>
<text text-anchor="middle" x="241" y="-159" font-family="Helvetica,sans-Serif" font-size="10.00">results</text>
</g>
<!-- browser_tester&#45;&gt;reporter -->
<g id="edge14" class="edge">
<title>browser_tester&#45;&gt;reporter</title>
<path fill="none" stroke="black" d="M282,-184.81C282,-173.45 282,-160.05 282,-148.39"/>
<polygon fill="black" stroke="black" points="285.5,-148.28 282,-138.28 278.5,-148.28 285.5,-148.28"/>
<text text-anchor="middle" x="299" y="-159" font-family="Helvetica,sans-Serif" font-size="10.00">results</text>
</g>
<!-- generic_tester&#45;&gt;reporter -->
<g id="edge15" class="edge">
<title>generic_tester&#45;&gt;reporter</title>
<path fill="none" stroke="black" d="M380.11,-184.81C360.62,-171.94 337.19,-156.45 318.1,-143.85"/>
<polygon fill="black" stroke="black" points="319.95,-140.87 309.67,-138.28 316.09,-146.71 319.95,-140.87"/>
<text text-anchor="middle" x="367" y="-159" font-family="Helvetica,sans-Serif" font-size="10.00">results</text>
</g>
<!-- report -->
<g id="node13" class="node">
<title>report</title>
<polygon fill="#ffcdd2" stroke="black" points="246,-44.5 160,-44.5 160,-8.5 252,-8.5 252,-38.5 246,-44.5"/>
<polyline fill="none" stroke="black" points="246,-44.5 246,-38.5 "/>
<polyline fill="none" stroke="black" points="252,-38.5 246,-38.5 "/>
<text text-anchor="middle" x="206" y="-29.7" font-family="Helvetica,sans-Serif" font-size="11.00">Reality Check</text>
<text text-anchor="middle" x="206" y="-17.7" font-family="Helvetica,sans-Serif" font-size="11.00">Report</text>
</g>
<!-- reporter&#45;&gt;report -->
<g id="edge16" class="edge">
<title>reporter&#45;&gt;report</title>
<path fill="none" stroke="black" d="M266.62,-99.69C255.2,-86.09 239.5,-67.39 226.94,-52.43"/>
<polygon fill="black" stroke="black" points="229.44,-49.97 220.33,-44.56 224.08,-54.47 229.44,-49.97"/>
<text text-anchor="middle" x="272.5" y="-74" font-family="Helvetica,sans-Serif" font-size="10.00">produces</text>
</g>
<!-- visual -->
<g id="node14" class="node">
<title>visual</title>
<polygon fill="#ffcdd2" stroke="black" stroke-dasharray="5,2" points="437.5,-53 270.5,-53 270.5,0 443.5,0 443.5,-47 437.5,-53"/>
<polyline fill="none" stroke="black" stroke-dasharray="5,2" points="437.5,-53 437.5,-47 "/>
<polyline fill="none" stroke="black" stroke-dasharray="5,2" points="443.5,-47 437.5,-47 "/>
<text text-anchor="middle" x="357" y="-37.8" font-family="Helvetica,sans-Serif" font-size="14.00">User&#45;facing</text>
<text text-anchor="middle" x="357" y="-22.8" font-family="Helvetica,sans-Serif" font-size="14.00">verification artifact</text>
<text text-anchor="middle" x="357" y="-7.8" font-family="Helvetica,sans-Serif" font-size="14.00">(visual, dashboard, ...)</text>
</g>
<!-- reporter&#45;&gt;visual -->
<g id="edge17" class="edge">
<title>reporter&#45;&gt;visual</title>
<path fill="none" stroke="black" stroke-dasharray="5,2" d="M297.18,-99.69C306.32,-88.65 318.25,-74.26 329.05,-61.23"/>
<polygon fill="black" stroke="black" points="331.91,-63.26 335.59,-53.33 326.52,-58.8 331.91,-63.26"/>
<text text-anchor="middle" x="343.5" y="-74" font-family="Helvetica,sans-Serif" font-size="10.00">generates</text>
</g>
<!-- dtu_env -->
<g id="node12" class="node">
<title>dtu_env</title>
<path fill="#bbdefb" stroke="black" d="M602.5,-339C602.5,-339 521.5,-339 521.5,-339 515.5,-339 509.5,-333 509.5,-327 509.5,-327 509.5,-313 509.5,-313 509.5,-307 515.5,-301 521.5,-301 521.5,-301 602.5,-301 602.5,-301 608.5,-301 614.5,-307 614.5,-313 614.5,-313 614.5,-327 614.5,-327 614.5,-333 608.5,-339 602.5,-339"/>
<text text-anchor="middle" x="562" y="-323.8" font-family="Helvetica,sans-Serif" font-size="14.00">Digital Twin</text>
<text text-anchor="middle" x="562" y="-308.8" font-family="Helvetica,sans-Serif" font-size="14.00">Environment</text>
</g>
<!-- profile_builder&#45;&gt;dtu_env -->
<g id="edge2" class="edge">
<title>profile_builder&#45;&gt;dtu_env</title>
<path fill="none" stroke="black" d="M580.79,-385.99C577.67,-375.19 573.63,-361.22 570.1,-349"/>
<polygon fill="black" stroke="black" points="573.42,-347.9 567.28,-339.26 566.7,-349.84 573.42,-347.9"/>
<text text-anchor="middle" x="597" y="-360" font-family="Helvetica,sans-Serif" font-size="10.00">launches</text>
</g>
<!-- dtu_env&#45;&gt;terminal_tester -->
<g id="edge10" class="edge">
<title>dtu_env&#45;&gt;terminal_tester</title>
<path fill="none" stroke="black" d="M522.39,-300.96C514.15,-297.83 505.4,-294.96 497,-293 441.43,-280.03 423.98,-298.26 369,-283 358.47,-280.08 357.56,-274.83 347,-272 288.94,-256.47 268.46,-284.62 212,-264 199.81,-259.55 187.96,-252.2 177.61,-244.42"/>
<polygon fill="black" stroke="black" points="179.68,-241.59 169.66,-238.14 175.34,-247.09 179.68,-241.59"/>
<text text-anchor="middle" x="401" y="-275" font-family="Helvetica,sans-Serif" font-size="10.00">tests against</text>
</g>
<!-- dtu_env&#45;&gt;browser_tester -->
<g id="edge11" class="edge">
<title>dtu_env&#45;&gt;browser_tester</title>
<path fill="none" stroke="black" d="M517.71,-300.95C510.8,-298.23 503.72,-295.5 497,-293 484.22,-288.24 480.87,-287.5 468,-283 454.2,-278.17 451.28,-275.15 437,-272 399.95,-263.82 387.46,-277.51 352,-264 339.87,-259.38 327.99,-252.05 317.57,-244.35"/>
<polygon fill="black" stroke="black" points="319.59,-241.49 309.53,-238.15 315.31,-247.03 319.59,-241.49"/>
<text text-anchor="middle" x="500" y="-275" font-family="Helvetica,sans-Serif" font-size="10.00">tests against</text>
</g>
<!-- dtu_env&#45;&gt;generic_tester -->
<g id="edge12" class="edge">
<title>dtu_env&#45;&gt;generic_tester</title>
<path fill="none" stroke="black" d="M555.02,-300.81C550.68,-291.31 544.32,-280.03 536,-272 521.83,-258.32 503.89,-247.09 486.35,-238.22"/>
<polygon fill="black" stroke="black" points="487.75,-235.01 477.23,-233.8 484.7,-241.31 487.75,-235.01"/>
<text text-anchor="middle" x="576" y="-275" font-family="Helvetica,sans-Serif" font-size="10.00">tests against</text>
</g>
</g>
</svg>
