<?xml version="1.0" encoding="UTF-8" standalone="no"?>
<!DOCTYPE svg PUBLIC "-//W3C//DTD SVG 1.1//EN"
 "http://www.w3.org/Graphics/SVG/1.1/DTD/svg11.dtd">
<!-- Generated by graphviz version 2.43.0 (0)
 -->
<!-- Title: reality_check_architecture Pages: 1 -->
<svg width="719pt" height="605pt"
 viewBox="0.00 0.00 719.00 605.00" xmlns="http://www.w3.org/2000/svg" xmlns:xlink="http://www.w3.org/1999/xlink">
<g id="graph0" class="graph" transform="scale(1 1) rotate(0) translate(4 601)">
<title>reality_check_architecture</title>
<polygon fill="white" stroke="transparent" points="-4,4 -4,-601 715,-601 715,4 -4,4"/>
<text text-anchor="middle" x="355.5" y="-581.8" font-family="Helvetica,sans-Serif" font-size="14.00">amplifier&#45;bundle&#45;reality&#45;check</text>
<g id="clust1" class="cluster">
<title>cluster_user_interactions</title>
<path fill="none" stroke="#666666" stroke-dasharray="5,2" d="M20,-492C20,-492 482,-492 482,-492 488,-492 494,-498 494,-504 494,-504 494,-554 494,-554 494,-560 488,-566 482,-566 482,-566 20,-566 20,-566 14,-566 8,-560 8,-554 8,-554 8,-504 8,-504 8,-498 14,-492 20,-492"/>
<text text-anchor="middle" x="251" y="-553.2" font-family="Helvetica,sans-Serif" font-size="11.00">User Interactions</text>
</g>
<g id="clust2" class="cluster">
<title>cluster_reality_check</title>
<path fill="#f0f8f0" stroke="#2d7d46" d="M75,-92C75,-92 481,-92 481,-92 487,-92 493,-98 493,-104 493,-104 493,-440 493,-440 493,-446 487,-452 481,-452 481,-452 75,-452 75,-452 69,-452 63,-446 63,-440 63,-440 63,-104 63,-104 63,-98 69,-92 75,-92"/>
<text text-anchor="middle" x="278" y="-439.2" font-family="Helvetica,sans-Serif" font-size="11.00">amplifier&#45;bundle&#45;reality&#45;check</text>
</g>
<g id="clust3" class="cluster">
<title>cluster_validators</title>
<path fill="none" stroke="#999999" stroke-dasharray="5,2" d="M83,-177C83,-177 473,-177 473,-177 479,-177 485,-183 485,-189 485,-189 485,-252 485,-252 485,-258 479,-264 473,-264 473,-264 83,-264 83,-264 77,-264 71,-258 71,-252 71,-252 71,-189 71,-189 71,-183 77,-177 83,-177"/>
<text text-anchor="middle" x="278" y="-252.8" font-family="Helvetica,sans-Serif" font-size="9.00">Validators (run sequentially, skip if no matching tests)</text>
</g>
<g id="clust4" class="cluster">
<title>cluster_dtu</title>
<path fill="none" stroke="#1a73e8" stroke-dasharray="5,2" d="M513,-293C513,-293 691,-293 691,-293 697,-293 703,-299 703,-305 703,-305 703,-439 703,-439 703,-445 697,-451 691,-451 691,-451 513,-451 513,-451 507,-451 501,-445 501,-439 501,-439 501,-305 501,-305 501,-299 507,-293 513,-293"/>
<text text-anchor="middle" x="602" y="-439" font-family="Helvetica,sans-Serif" font-size="10.00">amplifier&#45;bundle&#45;digital&#45;twin&#45;universe</text>
</g>
<!-- spec -->
<g id="node1" class="node">
<title>spec</title>
<polygon fill="#fff8e1" stroke="black" points="310,-537 160,-537 160,-501 316,-501 316,-531 310,-537"/>
<polyline fill="none" stroke="black" points="310,-537 310,-531 "/>
<polyline fill="none" stroke="black" points="316,-531 310,-531 "/>
<text text-anchor="middle" x="238" y="-515.3" font-family="Helvetica,sans-Serif" font-size="14.00">Spec / requirements</text>
</g>
<!-- intent -->
<g id="node5" class="node">
<title>intent</title>
<path fill="#c8e6c9" stroke="black" d="M289.5,-424C289.5,-424 190.5,-424 190.5,-424 184.5,-424 178.5,-418 178.5,-412 178.5,-412 178.5,-398 178.5,-398 178.5,-392 184.5,-386 190.5,-386 190.5,-386 289.5,-386 289.5,-386 295.5,-386 301.5,-392 301.5,-398 301.5,-398 301.5,-412 301.5,-412 301.5,-418 295.5,-424 289.5,-424"/>
<text text-anchor="middle" x="240" y="-408.8" font-family="Helvetica,sans-Serif" font-size="14.00">Intent Analyzer</text>
<text text-anchor="middle" x="240" y="-393.8" font-family="Helvetica,sans-Serif" font-size="14.00">agent</text>
</g>
<!-- spec&#45;&gt;intent -->
<g id="edge3" class="edge">
<title>spec&#45;&gt;intent</title>
<path fill="none" stroke="black" d="M238.3,-500.99C238.49,-490.5 238.74,-476.38 239,-462.24"/>
<polygon fill="black" stroke="black" points="242.5,-462.06 239.18,-452 235.5,-461.93 242.5,-462.06"/>
</g>
<!-- conversation -->
<g id="node2" class="node">
<title>conversation</title>
<polygon fill="#fff8e1" stroke="black" points="480,-538 334,-538 334,-500 486,-500 486,-532 480,-538"/>
<polyline fill="none" stroke="black" points="480,-538 480,-532 "/>
<polyline fill="none" stroke="black" points="486,-532 480,-532 "/>
<text text-anchor="middle" x="410" y="-522.8" font-family="Helvetica,sans-Serif" font-size="14.00">Agent conversation</text>
<text text-anchor="middle" x="410" y="-507.8" font-family="Helvetica,sans-Serif" font-size="14.00">history</text>
</g>
<!-- conversation&#45;&gt;intent -->
<g id="edge4" class="edge">
<title>conversation&#45;&gt;intent</title>
<path fill="none" stroke="black" d="M382.31,-499.76C364.78,-488.21 341.17,-472.66 318.23,-457.54"/>
<polygon fill="black" stroke="black" points="320.09,-454.58 309.82,-452 316.24,-460.42 320.09,-454.58"/>
</g>
<!-- feedback -->
<g id="node3" class="node">
<title>feedback</title>
<polygon fill="#fff8e1" stroke="black" points="136,-538 16,-538 16,-500 142,-500 142,-532 136,-538"/>
<polyline fill="none" stroke="black" points="136,-538 136,-532 "/>
<polyline fill="none" stroke="black" points="142,-532 136,-532 "/>
<text text-anchor="middle" x="79" y="-522.8" font-family="Helvetica,sans-Serif" font-size="14.00">User feedback /</text>
<text text-anchor="middle" x="79" y="-507.8" font-family="Helvetica,sans-Serif" font-size="14.00">clarifications</text>
</g>
<!-- feedback&#45;&gt;intent -->
<g id="edge5" class="edge">
<title>feedback&#45;&gt;intent</title>
<path fill="none" stroke="black" d="M105.23,-499.76C121.75,-488.26 143.99,-472.79 165.63,-457.74"/>
<polygon fill="black" stroke="black" points="167.67,-460.58 173.88,-452 163.67,-454.83 167.67,-460.58"/>
</g>
<!-- software -->
<g id="node4" class="node">
<title>software</title>
<polygon fill="#f5f5f5" stroke="black" points="668,-537 665,-541 644,-541 641,-537 504,-537 504,-501 668,-501 668,-537"/>
<text text-anchor="middle" x="586" y="-522.4" font-family="Helvetica,sans-Serif" font-size="12.00">Software</text>
<text text-anchor="middle" x="586" y="-509.4" font-family="Helvetica,sans-Serif" font-size="12.00">(repo, directory, artifact)</text>
</g>
<!-- profile_builder -->
<g id="node11" class="node">
<title>profile_builder</title>
<path fill="#bbdefb" stroke="black" d="M647.5,-424C647.5,-424 524.5,-424 524.5,-424 518.5,-424 512.5,-418 512.5,-412 512.5,-412 512.5,-398 512.5,-398 512.5,-392 518.5,-386 524.5,-386 524.5,-386 647.5,-386 647.5,-386 653.5,-386 659.5,-392 659.5,-398 659.5,-398 659.5,-412 659.5,-412 659.5,-418 653.5,-424 647.5,-424"/>
<text text-anchor="middle" x="586" y="-408.8" font-family="Helvetica,sans-Serif" font-size="14.00">DTU Profile Builder</text>
<text text-anchor="middle" x="586" y="-393.8" font-family="Helvetica,sans-Serif" font-size="14.00">agent</text>
</g>
<!-- software&#45;&gt;profile_builder -->
<g id="edge6" class="edge">
<title>software&#45;&gt;profile_builder</title>
<path fill="none" stroke="black" d="M586,-500.99C586,-483.38 586,-455.55 586,-434.55"/>
<polygon fill="black" stroke="black" points="589.5,-434.29 586,-424.29 582.5,-434.29 589.5,-434.29"/>
<text text-anchor="middle" x="618" y="-474" font-family="Helvetica,sans-Serif" font-size="10.00">builds profile</text>
<text text-anchor="middle" x="618" y="-463" font-family="Helvetica,sans-Serif" font-size="10.00">from</text>
</g>
<!-- criteria -->
<g id="node6" class="node">
<title>criteria</title>
<polygon fill="#fff8e1" stroke="black" points="302,-339 214,-339 214,-301 308,-301 308,-333 302,-339"/>
<polyline fill="none" stroke="black" points="302,-339 302,-333 "/>
<polyline fill="none" stroke="black" points="308,-333 302,-333 "/>
<text text-anchor="middle" x="261" y="-323.8" font-family="Helvetica,sans-Serif" font-size="14.00">Verification</text>
<text text-anchor="middle" x="261" y="-308.8" font-family="Helvetica,sans-Serif" font-size="14.00">Criteria</text>
</g>
<!-- intent&#45;&gt;criteria -->
<g id="edge1" class="edge">
<title>intent&#45;&gt;criteria</title>
<path fill="none" stroke="black" d="M244.56,-385.99C247.29,-375.19 250.82,-361.22 253.91,-349"/>
<polygon fill="black" stroke="black" points="257.32,-349.81 256.38,-339.26 250.53,-348.1 257.32,-349.81"/>
<text text-anchor="middle" x="273.5" y="-360" font-family="Helvetica,sans-Serif" font-size="10.00">produces</text>
</g>
<!-- terminal_tester -->
<g id="node7" class="node">
<title>terminal_tester</title>
<path fill="#c8e6c9" stroke="black" d="M187,-238C187,-238 91,-238 91,-238 85,-238 79,-232 79,-226 79,-226 79,-197 79,-197 79,-191 85,-185 91,-185 91,-185 187,-185 187,-185 193,-185 199,-191 199,-197 199,-197 199,-226 199,-226 199,-232 193,-238 187,-238"/>
<text text-anchor="middle" x="139" y="-222.8" font-family="Helvetica,sans-Serif" font-size="14.00">Terminal Tester</text>
<text text-anchor="middle" x="139" y="-207.8" font-family="Helvetica,sans-Serif" font-size="14.00">agent</text>
<text text-anchor="middle" x="139" y="-192.8" font-family="Helvetica,sans-Serif" font-size="14.00">(type: cli)</text>
</g>
<!-- criteria&#45;&gt;terminal_tester -->
<g id="edge7" class="edge">
<title>criteria&#45;&gt;terminal_tester</title>
<path fill="none" stroke="black" d="M240.3,-300.93C222.75,-285.61 197.12,-263.24 176.04,-244.83"/>
<polygon fill="black" stroke="black" points="178.34,-242.19 168.5,-238.25 173.73,-247.47 178.34,-242.19"/>
</g>
<!-- browser_tester -->
<g id="node8" class="node">
<title>browser_tester</title>
<path fill="#c8e6c9" stroke="black" d="M327,-238C327,-238 229,-238 229,-238 223,-238 217,-232 217,-226 217,-226 217,-197 217,-197 217,-191 223,-185 229,-185 229,-185 327,-185 327,-185 333,-185 339,-191 339,-197 339,-197 339,-226 339,-226 339,-232 333,-238 327,-238"/>
<text text-anchor="middle" x="278" y="-222.8" font-family="Helvetica,sans-Serif" font-size="14.00">Browser Tester</text>
<text text-anchor="middle" x="278" y="-207.8" font-family="Helvetica,sans-Serif" font-size="14.00">agent</text>
<text text-anchor="middle" x="278" y="-192.8" font-family="Helvetica,sans-Serif" font-size="14.00">(type: browser)</text>
</g>
<!-- criteria&#45;&gt;browser_tester -->
<g id="edge8" class="edge">
<title>criteria&#45;&gt;browser_tester</title>
<path fill="none" stroke="black" d="M263.88,-300.93C266.18,-286.55 269.47,-265.96 272.29,-248.27"/>
<polygon fill="black" stroke="black" points="275.77,-248.68 273.89,-238.25 268.86,-247.58 275.77,-248.68"/>
</g>
<!-- generic_tester -->
<g id="node9" class="node">
<title>generic_tester</title>
<path fill="#c8e6c9" stroke="black" d="M464.5,-238C464.5,-238 369.5,-238 369.5,-238 363.5,-238 357.5,-232 357.5,-226 357.5,-226 357.5,-197 357.5,-197 357.5,-191 363.5,-185 369.5,-185 369.5,-185 464.5,-185 464.5,-185 470.5,-185 476.5,-191 476.5,-197 476.5,-197 476.5,-226 476.5,-226 476.5,-232 470.5,-238 464.5,-238"/>
<text text-anchor="middle" x="417" y="-222.8" font-family="Helvetica,sans-Serif" font-size="14.00">Generic Tester</text>
<text text-anchor="middle" x="417" y="-207.8" font-family="Helvetica,sans-Serif" font-size="14.00">agent</text>
<text text-anchor="middle" x="417" y="-192.8" font-family="Helvetica,sans-Serif" font-size="14.00">(type: generic)</text>
</g>
<!-- criteria&#45;&gt;generic_tester -->
<g id="edge9" class="edge">
<title>criteria&#45;&gt;generic_tester</title>
<path fill="none" stroke="black" d="M290.77,-300.97C307.74,-290.5 329.3,-276.86 348,-264 357.05,-257.77 366.59,-250.88 375.6,-244.21"/>
<polygon fill="black" stroke="black" points="377.77,-246.96 383.69,-238.18 373.58,-241.35 377.77,-246.96"/>
</g>
<!-- reporter -->
<g id="node10" class="node">
<title>reporter</title>
<path fill="#c8e6c9" stroke="black" d="M297,-138C297,-138 259,-138 259,-138 253,-138 247,-132 247,-126 247,-126 247,-112 247,-112 247,-106 253,-100 259,-100 259,-100 297,-100 297,-100 303,-100 309,-106 309,-112 309,-112 309,-126 309,-126 309,-132 303,-138 297,-138"/>
<text text-anchor="middle" x="278" y="-122.8" font-family="Helvetica,sans-Serif" font-size="14.00">Report</text>
<text text-anchor="middle" x="278" y="-107.8" font-family="Helvetica,sans-Serif" font-size="14.00">agent</text>
</g>
<!-- terminal_tester&#45;&gt;reporter -->
<g id="edge13" class="edge">
<title>terminal_tester&#45;&gt;reporter</title>
<path fill="none" stroke="black" d="M178.46,-184.81C198.23,-171.94 222.01,-156.45 241.37,-143.85"/>
<polygon fill="black" stroke="black" points="243.45,-146.67 249.92,-138.28 239.63,-140.8 243.45,-146.67"/>
<text text-anchor="middle" x="237" y="-159" font-family="Helvetica,sans-Serif" font-size="10.00">results</text>
</g>
<!-- browser_tester&#45;&gt;reporter -->
<g id="edge14" class="edge">
<title>browser_tester&#45;&gt;reporter</title>
<path fill="none" stroke="black" d="M278,-184.81C278,-173.45 278,-160.05 278,-148.39"/>
<polygon fill="black" stroke="black" points="281.5,-148.28 278,-138.28 274.5,-148.28 281.5,-148.28"/>
<text text-anchor="middle" x="295" y="-159" font-family="Helvetica,sans-Serif" font-size="10.00">results</text>
</g>
<!-- generic_tester&#45;&gt;reporter -->
<g id="edge15" class="edge">
<title>generic_tester&#45;&gt;reporter</title>
<path fill="none" stroke="black" d="M377.54,-184.81C357.77,-171.94 333.99,-156.45 314.63,-143.85"/>
<polygon fill="black" stroke="black" points="316.37,-140.8 306.08,-138.28 312.55,-146.67 316.37,-140.8"/>
<text text-anchor="middle" x="364" y="-159" font-family="Helvetica,sans-Serif" font-size="10.00">results</text>
</g>
<!-- report -->
<g id="node13" class="node">
<title>report</title>
<polygon fill="#ffcdd2" stroke="black" points="242,-44.5 156,-44.5 156,-8.5 248,-8.5 248,-38.5 242,-44.5"/>
<polyline fill="none" stroke="black" points="242,-44.5 242,-38.5 "/>
<polyline fill="none" stroke="black" points="248,-38.5 242,-38.5 "/>
<text text-anchor="middle" x="202" y="-29.7" font-family="Helvetica,sans-Serif" font-size="11.00">Reality Check</text>
<text text-anchor="middle" x="202" y="-17.7" font-family="Helvetica,sans-Serif" font-size="11.00">Report</text>
</g>
<!-- reporter&#45;&gt;report -->
<g id="edge16" class="edge">
<title>reporter&#45;&gt;report</title>
<path fill="none" stroke="black" d="M262.62,-99.69C251.2,-86.09 235.5,-67.39 222.94,-52.43"/>
<polygon fill="black" stroke="black" points="225.44,-49.97 216.33,-44.56 220.08,-54.47 225.44,-49.97"/>
<text text-anchor="middle" x="268.5" y="-74" font-family="Helvetica,sans-Serif" font-size="10.00">produces</text>
</g>
<!-- visual -->
<g id="node14" class="node">
<title>visual</title>
<polygon fill="#ffcdd2" stroke="black" stroke-dasharray="5,2" points="433.5,-53 266.5,-53 266.5,0 439.5,0 439.5,-47 433.5,-53"/>
<polyline fill="none" stroke="black" stroke-dasharray="5,2" points="433.5,-53 433.5,-47 "/>
<polyline fill="none" stroke="black" stroke-dasharray="5,2" points="439.5,-47 433.5,-47 "/>
<text text-anchor="middle" x="353" y="-37.8" font-family="Helvetica,sans-Serif" font-size="14.00">User&#45;facing</text>
<text text-anchor="middle" x="353" y="-22.8" font-family="Helvetica,sans-Serif" font-size="14.00">verification artifact</text>
<text text-anchor="middle" x="353" y="-7.8" font-family="Helvetica,sans-Serif" font-size="14.00">(visual, dashboard, ...)</text>
</g>
<!-- reporter&#45;&gt;visual -->
<g id="edge17" class="edge">
<title>reporter&#45;&gt;visual</title>
<path fill="none" stroke="black" stroke-dasharray="5,2" d="M293.18,-99.69C302.32,-88.65 314.25,-74.26 325.05,-61.23"/>
<polygon fill="black" stroke="black" points="327.91,-63.26 331.59,-53.33 322.52,-58.8 327.91,-63.26"/>
<text text-anchor="middle" x="339.5" y="-74" font-family="Helvetica,sans-Serif" font-size="10.00">generates</text>
</g>
<!-- dtu_env -->
<g id="node12" class="node">
<title>dtu_env</title>
<path fill="#bbdefb" stroke="black" d="M602.5,-339C602.5,-339 521.5,-339 521.5,-339 515.5,-339 509.5,-333 509.5,-327 509.5,-327 509.5,-313 509.5,-313 509.5,-307 515.5,-301 521.5,-301 521.5,-301 602.5,-301 602.5,-301 608.5,-301 614.5,-307 614.5,-313 614.5,-313 614.5,-327 614.5,-327 614.5,-333 608.5,-339 602.5,-339"/>
<text text-anchor="middle" x="562" y="-323.8" font-family="Helvetica,sans-Serif" font-size="14.00">Digital Twin</text>
<text text-anchor="middle" x="562" y="-308.8" font-family="Helvetica,sans-Serif" font-size="14.00">Environment</text>
</g>
<!-- profile_builder&#45;&gt;dtu_env -->
<g id="edge2" class="edge">
<title>profile_builder&#45;&gt;dtu_env</title>
<path fill="none" stroke="black" d="M580.79,-385.99C577.67,-375.19 573.63,-361.22 570.1,-349"/>
<polygon fill="black" stroke="black" points="573.42,-347.9 567.28,-339.26 566.7,-349.84 573.42,-347.9"/>
<text text-anchor="middle" x="597" y="-360" font-family="Helvetica,sans-Serif" font-size="10.00">launches</text>
</g>
<!-- dtu_env&#45;&gt;terminal_tester -->
<g id="edge10" class="edge">
<title>dtu_env&#45;&gt;terminal_tester</title>
<path fill="none" stroke="black" d="M522.39,-300.96C514.15,-297.83 505.4,-294.96 497,-293 441,-279.95 423.41,-298.37 368,-283 357.47,-280.08 356.56,-274.82 346,-272 316.32,-264.08 236.86,-274.52 208,-264 195.81,-259.56 183.95,-252.21 173.61,-244.43"/>
<polygon fill="black" stroke="black" points="175.67,-241.6 165.66,-238.15 171.33,-247.1 175.67,-241.6"/>
<text text-anchor="middle" x="400" y="-275" font-family="Helvetica,sans-Serif" font-size="10.00">tests against</text>
</g>
<!-- dtu_env&#45;&gt;browser_tester -->
<g id="edge11" class="edge">
<title>dtu_env&#45;&gt;browser_tester</title>
<path fill="none" stroke="black" d="M517.71,-300.95C510.8,-298.23 503.72,-295.5 497,-293 496.58,-292.84 436.44,-272.09 436,-272 398.04,-263.84 385.35,-277.66 349,-264 336.74,-259.39 324.7,-252.07 314.13,-244.37"/>
<polygon fill="black" stroke="black" points="316.05,-241.44 305.98,-238.16 311.81,-247.01 316.05,-241.44"/>
<text text-anchor="middle" x="498" y="-275" font-family="Helvetica,sans-Serif" font-size="10.00">tests against</text>
</g>
<!-- dtu_env&#45;&gt;generic_tester -->
<g id="edge12" class="edge">
<title>dtu_env&#45;&gt;generic_tester</title>
<path fill="none" stroke="black" d="M555.05,-300.78C550.71,-291.28 544.34,-280 536,-272 521.66,-258.25 503.53,-247.02 485.76,-238.17"/>
<polygon fill="black" stroke="black" points="487.06,-234.91 476.53,-233.76 484.05,-241.23 487.06,-234.91"/>
<text text-anchor="middle" x="576" y="-275" font-family="Helvetica,sans-Serif" font-size="10.00">tests against</text>
</g>
</g>
</svg>
