<?xml version="1.0" encoding="UTF-8" standalone="no"?>
<!DOCTYPE svg PUBLIC "-//W3C//DTD SVG 1.1//EN"
 "http://www.w3.org/Graphics/SVG/1.1/DTD/svg11.dtd">
<!-- Generated by graphviz version 2.43.0 (0)
 -->
<!-- Title: reality_check_architecture Pages: 1 -->
<svg width="719pt" height="605pt"
 viewBox="0.00 0.00 719.00 605.00" xmlns="http://www.w3.org/2000/svg" xmlns:xlink="http://www.w3.org/1999/xlink">
<g id="graph0" class="graph" transform="scale(1 1) rotate(0) translate(4 601)">
<title>reality_check_architecture</title>
<polygon fill="white" stroke="transparent" points="-4,4 -4,-601 715,-601 715,4 -4,4"/>
<text text-anchor="middle" x="355.5" y="-581.8" font-family="Helvetica,sans-Serif" font-size="14.00">amplifier&#45;bundle&#45;reality&#45;check</text>
<g id="clust1" class="cluster">
<title>cluster_user_interactions</title>
<path fill="none" stroke="#666666" stroke-dasharray="5,2" d="M20,-492C20,-492 482,-492 482,-492 488,-492 494,-498 494,-504 494,-504 494,-554 494,-554 494,-560 488,-566 482,-566 482,-566 20,-566 20,-566 14,-566 8,-560 8,-554 8,-554 8,-504 8,-504 8,-498 14,-492 20,-492"/>
<text text-anchor="middle" x="251" y="-553.2" font-family="Helvetica,sans-Serif" font-size="11.00">User Interactions</text>
</g>
<g id="clust2" class="cluster">
<title>cluster_reality_check</title>
<path fill="#f0f8f0" stroke="#2d7d46" d="M67,-92C67,-92 481,-92 481,-92 487,-92 493,-98 493,-104 493,-104 493,-440 493,-440 493,-446 487,-452 481,-452 481,-452 67,-452 67,-452 61,-452 55,-446 55,-440 55,-440 55,-104 55,-104 55,-98 61,-92 67,-92"/>
<text text-anchor="middle" x="274" y="-439.2" font-family="Helvetica,sans-Serif" font-size="11.00">amplifier&#45;bundle&#45;reality&#45;check</text>
</g>
<g id="clust3" class="cluster">
<title>cluster_validators</title>
<path fill="none" stroke="#999999" stroke-dasharray="5,2" d="M75,-177C75,-177 473,-177 473,-177 479,-177 485,-183 485,-189 485,-189 485,-252 485,-252 485,-258 479,-264 473,-264 473,-264 75,-264 75,-264 69,-264 63,-258 63,-252 63,-252 63,-189 63,-189 63,-183 69,-177 75,-177"/>
<text text-anchor="middle" x="274" y="-252.8" font-family="Helvetica,sans-Serif" font-size="9.00">Validators (run sequentially, skip if no matching tests)</text>
</g>
<g id="clust4" class="cluster">
<title>cluster_dtu</title>
<path fill="none" stroke="#1a73e8" stroke-dasharray="5,2" d="M513,-293C513,-293 691,-293 691,-293 697,-293 703,-299 703,-305 703,-305 703,-439 703,-439 703,-445 697,-451 691,-451 691,-451 513,-451 513,-451 507,-451 501,-445 501,-439 501,-439 501,-305 501,-305 501,-299 507,-293 513,-293"/>
<text text-anchor="middle" x="602" y="-439" font-family="Helvetica,sans-Serif" font-size="10.00">amplifier&#45;bundle&#45;digital&#45;twin&#45;universe</text>
</g>
<!-- spec -->
<g id="node1" class="node">
<title>spec</title>
<polygon fill="#fff8e1" stroke="black" points="310,-537 160,-537 160,-501 316,-501 316,-531 310,-537"/>
<polyline fill="none" stroke="black" points="310,-537 310,-531 "/>
<polyline fill="none" stroke="black" points="316,-531 310,-531 "/>
<text text-anchor="middle" x="238" y="-515.3" font-family="Helvetica,sans-Serif" font-size="14.00">Spec / requirements</text>
</g>
<!-- intent -->
<g id="node5" class="node">
<title>intent</title>
<path fill="#c8e6c9" stroke="black" d="M289.5,-424C289.5,-424 190.5,-424 190.5,-424 184.5,-424 178.5,-418 178.5,-412 178.5,-412 178.5,-398 178.5,-398 178.5,-392 184.5,-386 190.5,-386 190.5,-386 289.5,-386 289.5,-386 295.5,-386 301.5,-392 301.5,-398 301.5,-398 301.5,-412 301.5,-412 301.5,-418 295.5,-424 289.5,-424"/>
<text text-anchor="middle" x="240" y="-408.8" font-family="Helvetica,sans-Serif" font-size="14.00">Intent Analyzer</text>
<text text-anchor="middle" x="240" y="-393.8" font-family="Helvetica,sans-Serif" font-size="14.00">agent</text>
</g>
<!-- spec&#45;&gt;intent -->
<g id="edge3" class="edge">
<title>spec&#45;&gt;intent</title>
<path fill="none" stroke="black" d="M238.3,-500.99C238.49,-490.5 238.74,-476.38 239,-462.24"/>
<polygon fill="black" stroke="black" points="242.5,-462.06 239.18,-452 235.5,-461.93 242.5,-462.06"/>
</g>
<!-- conversation -->
<g id="node2" class="node">
<title>conversation</title>
<polygon fill="#fff8e1" stroke="black" points="480,-538 334,-538 334,-500 486,-500 486,-532 480,-538"/>
<polyline fill="none" stroke="black" points="480,-538 480,-532 "/>
<polyline fill="none" stroke="black" points="486,-532 480,-532 "/>
<text text-anchor="middle" x="410" y="-522.8" font-family="Helvetica,sans-Serif" font-size="14.00">Agent conversation</text>
<text text-anchor="middle" x="410" y="-507.8" font-family="Helvetica,sans-Serif" font-size="14.00">history</text>
</g>
<!-- conversation&#45;&gt;intent -->
<g id="edge4" class="edge">
<title>conversation&#45;&gt;intent</title>
<path fill="none" stroke="black" d="M382.31,-499.76C364.78,-488.21 341.17,-472.66 318.23,-457.54"/>
<polygon fill="black" stroke="black" points="320.09,-454.58 309.82,-452 316.24,-460.42 320.09,-454.58"/>
</g>
<!-- feedback -->
<g id="node3" class="node">
<title>feedback</title>
<polygon fill="#fff8e1" stroke="black" points="136,-538 16,-538 16,-500 142,-500 142,-532 136,-538"/>
<polyline fill="none" stroke="black" points="136,-538 136,-532 "/>
<polyline fill="none" stroke="black" points="142,-532 136,-532 "/>
<text text-anchor="middle" x="79" y="-522.8" font-family="Helvetica,sans-Serif" font-size="14.00">User feedback /</text>
<text text-anchor="middle" x="79" y="-507.8" font-family="Helvetica,sans-Serif" font-size="14.00">clarifications</text>
</g>
<!-- feedback&#45;&gt;intent -->
<g id="edge5" class="edge">
<title>feedback&#45;&gt;intent</title>
<path fill="none" stroke="black" d="M105.23,-499.76C121.75,-488.26 143.99,-472.79 165.63,-457.74"/>
<polygon fill="black" stroke="black" points="167.67,-460.58 173.88,-452 163.67,-454.83 167.67,-460.58"/>
</g>
<!-- software -->
<g id="node4" class="node">
<title>software</title>
<polygon fill="#f5f5f5" stroke="black" points="668,-537 665,-541 644,-541 641,-537 504,-537 504,-501 668,-501 668,-537"/>
<text text-anchor="middle" x="586" y="-522.4" font-family="Helvetica,sans-Serif" font-size="12.00">Software</text>
<text text-anchor="middle" x="586" y="-509.4" font-family="Helvetica,sans-Serif" font-size="12.00">(repo, directory, artifact)</text>
</g>
<!-- profile_builder -->
<g id="node11" class="node">
<title>profile_builder</title>
<path fill="#bbdefb" stroke="black" d="M647.5,-424C647.5,-424 524.5,-424 524.5,-424 518.5,-424 512.5,-418 512.5,-412 512.5,-412 512.5,-398 512.5,-398 512.5,-392 518.5,-386 524.5,-386 524.5,-386 647.5,-386 647.5,-386 653.5,-386 659.5,-392 659.5,-398 659.5,-398 659.5,-412 659.5,-412 659.5,-418 653.5,-424 647.5,-424"/>
<text text-anchor="middle" x="586" y="-408.8" font-family="Helvetica,sans-Serif" font-size="14.00">DTU Profile Builder</text>
<text text-anchor="middle" x="586" y="-393.8" font-family="Helvetica,sans-Serif" font-size="14.00">agent</text>
</g>
<!-- software&#45;&gt;profile_builder -->
<g id="edge6" class="edge">
<title>software&#45;&gt;profile_builder</title>
<path fill="none" stroke="black" d="M586,-500.99C586,-483.38 586,-455.55 586,-434.55"/>
<polygon fill="black" stroke="black" points="589.5,-434.29 586,-424.29 582.5,-434.29 589.5,-434.29"/>
<text text-anchor="middle" x="618" y="-474" font-family="Helvetica,sans-Serif" font-size="10.00">builds profile</text>
<text text-anchor="middle" x="618" y="-463" font-family="Helvetica,sans-Serif" font-size="10.00">from</text>
</g>
<!-- criteria -->
<g id="node6" class="node">
<title>criteria</title>
<polygon fill="#fff8e1" stroke="black" points="298,-339 210,-339 210,-301 304,-301 304,-333 298,-339"/>
<polyline fill="none" stroke="black" points="298,-339 298,-333 "/>
<polyline fill="none" stroke="black" points="304,-333 298,-333 "/>
<text text-anchor="middle" x="257" y="-323.8" font-family="Helvetica,sans-Serif" font-size="14.00">Verification</text>
<text text-anchor="middle" x="257" y="-308.8" font-family="Helvetica,sans-Serif" font-size="14.00">Criteria</text>
</g>
<!-- intent&#45;&gt;criteria -->
<g id="edge1" class="edge">
<title>intent&#45;&gt;criteria</title>
<path fill="none" stroke="black" d="M243.69,-385.99C245.88,-375.3 248.7,-361.5 251.19,-349.37"/>
<polygon fill="black" stroke="black" points="254.68,-349.76 253.26,-339.26 247.82,-348.36 254.68,-349.76"/>
<text text-anchor="middle" x="271.5" y="-360" font-family="Helvetica,sans-Serif" font-size="10.00">produces</text>
</g>
<!-- terminal_tester -->
<g id="node7" class="node">
<title>terminal_tester</title>
<path fill="#c8e6c9" stroke="black" d="M179,-238C179,-238 83,-238 83,-238 77,-238 71,-232 71,-226 71,-226 71,-197 71,-197 71,-191 77,-185 83,-185 83,-185 179,-185 179,-185 185,-185 191,-191 191,-197 191,-197 191,-226 191,-226 191,-232 185,-238 179,-238"/>
<text text-anchor="middle" x="131" y="-222.8" font-family="Helvetica,sans-Serif" font-size="14.00">Terminal Tester</text>
<text text-anchor="middle" x="131" y="-207.8" font-family="Helvetica,sans-Serif" font-size="14.00">agent</text>
<text text-anchor="middle" x="131" y="-192.8" font-family="Helvetica,sans-Serif" font-size="14.00">(type: cli)</text>
</g>
<!-- criteria&#45;&gt;terminal_tester -->
<g id="edge7" class="edge">
<title>criteria&#45;&gt;terminal_tester</title>
<path fill="none" stroke="black" d="M235.63,-300.93C217.49,-285.61 191.03,-263.24 169.25,-244.83"/>
<polygon fill="black" stroke="black" points="171.37,-242.04 161.47,-238.25 166.85,-247.38 171.37,-242.04"/>
</g>
<!-- browser_tester -->
<g id="node8" class="node">
<title>browser_tester</title>
<path fill="#c8e6c9" stroke="black" d="M319,-238C319,-238 221,-238 221,-238 215,-238 209,-232 209,-226 209,-226 209,-197 209,-197 209,-191 215,-185 221,-185 221,-185 319,-185 319,-185 325,-185 331,-191 331,-197 331,-197 331,-226 331,-226 331,-232 325,-238 319,-238"/>
<text text-anchor="middle" x="270" y="-222.8" font-family="Helvetica,sans-Serif" font-size="14.00">Browser Tester</text>
<text text-anchor="middle" x="270" y="-207.8" font-family="Helvetica,sans-Serif" font-size="14.00">agent</text>
<text text-anchor="middle" x="270" y="-192.8" font-family="Helvetica,sans-Serif" font-size="14.00">(type: browser)</text>
</g>
<!-- criteria&#45;&gt;browser_tester -->
<g id="edge8" class="edge">
<title>criteria&#45;&gt;browser_tester</title>
<path fill="none" stroke="black" d="M259.21,-300.93C260.96,-286.55 263.47,-265.96 265.63,-248.27"/>
<polygon fill="black" stroke="black" points="269.12,-248.6 266.86,-238.25 262.17,-247.76 269.12,-248.6"/>
</g>
<!-- generic_tester -->
<g id="node9" class="node">
<title>generic_tester</title>
<path fill="#c8e6c9" stroke="black" stroke-dasharray="5,2" d="M465,-238C465,-238 361,-238 361,-238 355,-238 349,-232 349,-226 349,-226 349,-197 349,-197 349,-191 355,-185 361,-185 361,-185 465,-185 465,-185 471,-185 477,-191 477,-197 477,-197 477,-226 477,-226 477,-232 471,-238 465,-238"/>
<text text-anchor="middle" x="413" y="-222.8" font-family="Helvetica,sans-Serif" font-size="14.00">Generic Tester</text>
<text text-anchor="middle" x="413" y="-207.8" font-family="Helvetica,sans-Serif" font-size="14.00">(type: generic)</text>
<text text-anchor="middle" x="413" y="-192.8" font-family="Helvetica,sans-Serif" font-size="14.00">API, library, etc.</text>
</g>
<!-- criteria&#45;&gt;generic_tester -->
<g id="edge9" class="edge">
<title>criteria&#45;&gt;generic_tester</title>
<path fill="none" stroke="black" d="M284.8,-300.87C300.99,-290.24 321.74,-276.49 340,-264 349.41,-257.57 359.43,-250.58 368.93,-243.9"/>
<polygon fill="black" stroke="black" points="370.97,-246.74 377.13,-238.12 366.94,-241.02 370.97,-246.74"/>
</g>
<!-- reporter -->
<g id="node10" class="node">
<title>reporter</title>
<path fill="#c8e6c9" stroke="black" d="M289,-138C289,-138 251,-138 251,-138 245,-138 239,-132 239,-126 239,-126 239,-112 239,-112 239,-106 245,-100 251,-100 251,-100 289,-100 289,-100 295,-100 301,-106 301,-112 301,-112 301,-126 301,-126 301,-132 295,-138 289,-138"/>
<text text-anchor="middle" x="270" y="-122.8" font-family="Helvetica,sans-Serif" font-size="14.00">Report</text>
<text text-anchor="middle" x="270" y="-107.8" font-family="Helvetica,sans-Serif" font-size="14.00">agent</text>
</g>
<!-- terminal_tester&#45;&gt;reporter -->
<g id="edge13" class="edge">
<title>terminal_tester&#45;&gt;reporter</title>
<path fill="none" stroke="black" d="M170.46,-184.81C190.23,-171.94 214.01,-156.45 233.37,-143.85"/>
<polygon fill="black" stroke="black" points="235.45,-146.67 241.92,-138.28 231.63,-140.8 235.45,-146.67"/>
<text text-anchor="middle" x="229" y="-159" font-family="Helvetica,sans-Serif" font-size="10.00">results</text>
</g>
<!-- browser_tester&#45;&gt;reporter -->
<g id="edge14" class="edge">
<title>browser_tester&#45;&gt;reporter</title>
<path fill="none" stroke="black" d="M270,-184.81C270,-173.45 270,-160.05 270,-148.39"/>
<polygon fill="black" stroke="black" points="273.5,-148.28 270,-138.28 266.5,-148.28 273.5,-148.28"/>
<text text-anchor="middle" x="287" y="-159" font-family="Helvetica,sans-Serif" font-size="10.00">results</text>
</g>
<!-- generic_tester&#45;&gt;reporter -->
<g id="edge15" class="edge">
<title>generic_tester&#45;&gt;reporter</title>
<path fill="none" stroke="black" stroke-dasharray="5,2" d="M372.4,-184.81C351.98,-171.88 327.38,-156.31 307.42,-143.68"/>
<polygon fill="black" stroke="black" points="309.21,-140.67 298.88,-138.28 305.46,-146.59 309.21,-140.67"/>
<text text-anchor="middle" x="358" y="-159" font-family="Helvetica,sans-Serif" font-size="10.00">results</text>
</g>
<!-- report -->
<g id="node13" class="node">
<title>report</title>
<polygon fill="#ffcdd2" stroke="black" points="234,-44.5 148,-44.5 148,-8.5 240,-8.5 240,-38.5 234,-44.5"/>
<polyline fill="none" stroke="black" points="234,-44.5 234,-38.5 "/>
<polyline fill="none" stroke="black" points="240,-38.5 234,-38.5 "/>
<text text-anchor="middle" x="194" y="-29.7" font-family="Helvetica,sans-Serif" font-size="11.00">Reality Check</text>
<text text-anchor="middle" x="194" y="-17.7" font-family="Helvetica,sans-Serif" font-size="11.00">Report</text>
</g>
<!-- reporter&#45;&gt;report -->
<g id="edge16" class="edge">
<title>reporter&#45;&gt;report</title>
<path fill="none" stroke="black" d="M254.62,-99.69C243.2,-86.09 227.5,-67.39 214.94,-52.43"/>
<polygon fill="black" stroke="black" points="217.44,-49.97 208.33,-44.56 212.08,-54.47 217.44,-49.97"/>
<text text-anchor="middle" x="260.5" y="-74" font-family="Helvetica,sans-Serif" font-size="10.00">produces</text>
</g>
<!-- visual -->
<g id="node14" class="node">
<title>visual</title>
<polygon fill="#ffcdd2" stroke="black" stroke-dasharray="5,2" points="425.5,-53 258.5,-53 258.5,0 431.5,0 431.5,-47 425.5,-53"/>
<polyline fill="none" stroke="black" stroke-dasharray="5,2" points="425.5,-53 425.5,-47 "/>
<polyline fill="none" stroke="black" stroke-dasharray="5,2" points="431.5,-47 425.5,-47 "/>
<text text-anchor="middle" x="345" y="-37.8" font-family="Helvetica,sans-Serif" font-size="14.00">User&#45;facing</text>
<text text-anchor="middle" x="345" y="-22.8" font-family="Helvetica,sans-Serif" font-size="14.00">verification artifact</text>
<text text-anchor="middle" x="345" y="-7.8" font-family="Helvetica,sans-Serif" font-size="14.00">(visual, dashboard, ...)</text>
</g>
<!-- reporter&#45;&gt;visual -->
<g id="edge17" class="edge">
<title>reporter&#45;&gt;visual</title>
<path fill="none" stroke="black" stroke-dasharray="5,2" d="M285.18,-99.69C294.32,-88.65 306.25,-74.26 317.05,-61.23"/>
<polygon fill="black" stroke="black" points="319.91,-63.26 323.59,-53.33 314.52,-58.8 319.91,-63.26"/>
<text text-anchor="middle" x="331.5" y="-74" font-family="Helvetica,sans-Serif" font-size="10.00">generates</text>
</g>
<!-- dtu_env -->
<g id="node12" class="node">
<title>dtu_env</title>
<path fill="#bbdefb" stroke="black" d="M602.5,-339C602.5,-339 521.5,-339 521.5,-339 515.5,-339 509.5,-333 509.5,-327 509.5,-327 509.5,-313 509.5,-313 509.5,-307 515.5,-301 521.5,-301 521.5,-301 602.5,-301 602.5,-301 608.5,-301 614.5,-307 614.5,-313 614.5,-313 614.5,-327 614.5,-327 614.5,-333 608.5,-339 602.5,-339"/>
<text text-anchor="middle" x="562" y="-323.8" font-family="Helvetica,sans-Serif" font-size="14.00">Digital Twin</text>
<text text-anchor="middle" x="562" y="-308.8" font-family="Helvetica,sans-Serif" font-size="14.00">Environment</text>
</g>
<!-- profile_builder&#45;&gt;dtu_env -->
<g id="edge2" class="edge">
<title>profile_builder&#45;&gt;dtu_env</title>
<path fill="none" stroke="black" d="M580.79,-385.99C577.67,-375.19 573.63,-361.22 570.1,-349"/>
<polygon fill="black" stroke="black" points="573.42,-347.9 567.28,-339.26 566.7,-349.84 573.42,-347.9"/>
<text text-anchor="middle" x="597" y="-360" font-family="Helvetica,sans-Serif" font-size="10.00">launches</text>
</g>
<!-- dtu_env&#45;&gt;terminal_tester -->
<g id="edge10" class="edge">
<title>dtu_env&#45;&gt;terminal_tester</title>
<path fill="none" stroke="black" d="M522.39,-300.95C514.15,-297.83 505.4,-294.96 497,-293 440.56,-279.87 422.85,-298.47 367,-283 356.46,-280.08 355.57,-274.8 345,-272 313.81,-263.72 230.34,-275.01 200,-264 187.8,-259.57 175.95,-252.23 165.6,-244.45"/>
<polygon fill="black" stroke="black" points="167.66,-241.62 157.65,-238.17 163.33,-247.12 167.66,-241.62"/>
<text text-anchor="middle" x="399" y="-275" font-family="Helvetica,sans-Serif" font-size="10.00">tests against</text>
</g>
<!-- dtu_env&#45;&gt;browser_tester -->
<g id="edge11" class="edge">
<title>dtu_env&#45;&gt;browser_tester</title>
<path fill="none" stroke="black" d="M517.73,-300.89C510.82,-298.18 503.73,-295.47 497,-293 483.8,-288.17 480.31,-287.51 467,-283 452.76,-278.18 449.72,-275.1 435,-272 393.54,-263.27 379.67,-278.89 340,-264 327.85,-259.44 315.96,-252.13 305.54,-244.43"/>
<polygon fill="black" stroke="black" points="307.56,-241.57 297.51,-238.22 303.28,-247.11 307.56,-241.57"/>
<text text-anchor="middle" x="499" y="-275" font-family="Helvetica,sans-Serif" font-size="10.00">tests against</text>
</g>
<!-- dtu_env&#45;&gt;generic_tester -->
<g id="edge12" class="edge">
<title>dtu_env&#45;&gt;generic_tester</title>
<path fill="none" stroke="black" stroke-dasharray="5,2" d="M554.67,-300.75C550.13,-291.24 543.53,-279.97 535,-272 520.92,-258.85 503.4,-248.03 486.06,-239.39"/>
<polygon fill="black" stroke="black" points="487.56,-236.23 477.03,-235.07 484.54,-242.54 487.56,-236.23"/>
<text text-anchor="middle" x="575" y="-275" font-family="Helvetica,sans-Serif" font-size="10.00">tests against</text>
</g>
</g>
</svg>
